<?xml version="1.0" encoding="utf-8"?>
<!-- Generator: Adobe Illustrator 20.1.0, SVG Export Plug-In . SVG Version: 6.00 Build 0)  -->
<svg version="1.1" id="Layer_1" xmlns="http://www.w3.org/2000/svg" xmlns:xlink="http://www.w3.org/1999/xlink" x="0px" y="0px"
	 viewBox="0 0 595.3 841.9" style="enable-background:new 0 0 595.3 841.9;" xml:space="preserve">
<style type="text/css">
	.st0{clip-path:url(#SVGID_2_);fill:url(#SVGID_3_);}
	.st1{display:none;fill:none;stroke:#000000;stroke-miterlimit:10;}
	.st2{opacity:0.5;fill:none;stroke:#00BC1F;stroke-width:4;stroke-miterlimit:10;}
	.st3{fill:none;stroke:#000000;stroke-miterlimit:10;}
	.st4{fill:none;stroke:#000000;stroke-width:0.5;stroke-miterlimit:10;}
</style>
<g id="Layer_2">
</g>
<g id="Layer_1_1_">
	<g>
		<defs>
			<rect id="SVGID_1_" x="6.3" y="165" width="585" height="392"/>
		</defs>
		<clipPath id="SVGID_2_">
			<use xlink:href="#SVGID_1_"  style="overflow:visible;"/>
		</clipPath>
		
			<radialGradient id="SVGID_3_" cx="298.8" cy="478.46" r="150.1947" gradientTransform="matrix(1 0 0 -1 0 839.46)" gradientUnits="userSpaceOnUse">
			<stop  offset="0.486" style="stop-color:#000000;stop-opacity:0"/>
			<stop  offset="1" style="stop-color:#000000;stop-opacity:0.95"/>
		</radialGradient>
		<rect x="-107.9" y="88.5" class="st0" width="813.4" height="545.1"/>
	</g>
	<g>
		<line class="st1" x1="298.8" y1="238.5" x2="298.8" y2="483.5"/>
		<line class="st1" x1="445.9" y1="361" x2="151.6" y2="361"/>
		<path class="st2" d="M221.1,361c0-42.9,34.8-77.7,77.7-77.7 M298.8,438.7c42.9,0,77.7-34.8,77.7-77.7"/>
		<line class="st3" x1="445.9" y1="361" x2="368.8" y2="361"/>
		<line class="st3" x1="228.7" y1="361" x2="151.6" y2="361"/>
		<line class="st3" x1="298.8" y1="430.5" x2="298.8" y2="483.5"/>
		<line class="st3" x1="298.8" y1="238.5" x2="298.8" y2="291.5"/>
		<line class="st3" x1="298.8" y1="373.5" x2="298.8" y2="404.2"/>
		<line class="st3" x1="288.8" y1="361" x2="288.8" y2="365.3"/>
		<line class="st3" x1="308.8" y1="361" x2="308.8" y2="365.3"/>
		<line class="st3" x1="268.8" y1="361" x2="268.8" y2="365.3"/>
		<line class="st3" x1="248.8" y1="361" x2="248.8" y2="365.3"/>
		<line class="st3" x1="228.8" y1="361" x2="228.8" y2="365.3"/>
		<line class="st3" x1="328.8" y1="361" x2="328.8" y2="365.3"/>
		<line class="st3" x1="348.8" y1="361" x2="348.8" y2="365.3"/>
		<line class="st3" x1="368.8" y1="361" x2="368.8" y2="365.3"/>
		<polyline class="st3" points="293.7,369.9 298.8,361 303.9,369.9 		"/>
		<polyline class="st3" points="275.7,366.3 278.8,361 281.9,366.3 		"/>
		<polyline class="st3" points="255.7,366.3 258.8,361 261.9,366.3 		"/>
		<polyline class="st3" points="235.7,366.3 238.8,361 241.9,366.3 		"/>
		<polyline class="st3" points="315.7,366.3 318.8,361 321.9,366.3 		"/>
		<polyline class="st3" points="335.7,366.3 338.8,361 341.9,366.3 		"/>
		<polyline class="st3" points="355.7,366.3 358.8,361 361.9,366.3 		"/>
		<path class="st4" d="M300.4,436.5l0.1,4.3 M297.2,285.5l-0.1-4.3 M303.7,436.4l0.3,4.3 M293.9,285.6l-0.3-4.3 M307,436.1l0.5,4.3
			 M290.6,285.9l-0.5-4.3 M310.3,435.7l0.7,4.2 M287.3,286.3l-0.7-4.2 M313.5,435.1l0.8,4.2 M284.1,286.9l-0.8-4.2 M316.8,434.4
			l1,4.2 M280.8,287.6l-1-4.2 M319.9,433.5l1.2,4.1 M277.7,288.5l-1.2-4.1 M323.1,432.5l1.4,4.1 M274.5,289.5l-1.4-4.1 M326.2,431.4
			l1.6,4 M271.4,290.6l-1.6-4 M329.2,430.1l1.7,3.9 M268.4,291.9l-1.7-3.9 M332.2,428.7l1.9,3.9 M265.4,293.3l-1.9-3.9 M335.1,427.2
			l2.1,3.8 M262.5,294.8l-2.1-3.8 M338,425.6l2.2,3.7 M259.6,296.4l-2.2-3.7 M340.8,423.8l2.4,3.6 M256.8,298.2l-2.4-3.6
			 M343.5,421.9l2.5,3.5 M254.1,300.1l-2.5-3.5 M346.1,419.9l2.7,3.4 M251.5,302.1l-2.7-3.4 M348.6,417.8l2.8,3.2 M249,304.2
			l-2.8-3.2 M351,415.6l3,3.1 M246.6,306.4l-3-3.1 M353.4,413.2l3.1,3 M244.2,308.8l-3.1-3 M355.6,410.8l3.2,2.8 M242,311.2
			l-3.2-2.8 M357.7,408.3l3.4,2.7 M239.9,313.7l-3.4-2.7 M359.7,405.7l3.5,2.5 M237.9,316.3l-3.5-2.5 M361.6,403l3.6,2.4 M236,319
			l-3.6-2.4 M363.4,400.2l3.7,2.2 M234.2,321.8l-3.7-2.2 M365,397.3l3.8,2.1 M232.6,324.7l-3.8-2.1 M366.5,394.4l3.9,1.9
			 M231.1,327.6l-3.9-1.9 M367.9,391.4l3.9,1.7 M229.7,330.6l-3.9-1.7 M369.2,388.4l4,1.6 M228.4,333.6l-4-1.6 M370.3,385.3l4.1,1.4
			 M227.3,336.7l-4.1-1.4 M371.3,382.1l4.1,1.2 M226.3,339.9l-4.1-1.2 M372.2,379l4.2,1 M225.4,343l-4.2-1 M372.9,375.7l4.2,0.8
			 M224.7,346.3l-4.2-0.8 M373.5,372.5l4.2,0.7 M224.1,349.5l-4.2-0.7 M373.9,369.2l4.3,0.5 M223.7,352.8l-4.3-0.5 M374.2,365.9
			l4.3,0.3 M223.4,356.1l-4.3-0.3 M374.3,362.6l4.3,0.1 M223.3,359.4l-4.3-0.1 M374.3,359.4l4.3-0.1 M223.3,362.6l-4.3,0.1
			 M374.2,356.1l4.3-0.3 M219.1,366.2l4.3-0.3 M373.9,352.8l4.3-0.5 M223.7,369.2l-4.3,0.5 M373.5,349.5l4.2-0.7 M224.1,372.5
			l-4.2,0.7 M372.9,346.3l4.2-0.8 M224.7,375.7l-4.2,0.8 M376.3,342l-4.2,1 M225.4,379l-4.2,1 M371.3,339.9l4.1-1.2 M226.3,382.1
			l-4.1,1.2 M370.3,336.7l4.1-1.4 M227.3,385.3l-4.1,1.4 M369.2,333.6l4-1.6 M228.4,388.4l-4,1.6 M367.9,330.6l3.9-1.7 M229.7,391.4
			l-3.9,1.7 M366.5,327.6l3.9-1.9 M231.1,394.4l-3.9,1.9 M365,324.7l3.8-2.1 M232.6,397.3l-3.8,2.1 M363.4,321.8l3.7-2.2
			 M234.2,400.2l-3.7,2.2 M361.6,319l3.6-2.4 M236,403l-3.6,2.4 M359.7,316.3l3.5-2.5 M237.9,405.7l-3.5,2.5 M357.7,313.7l3.4-2.7
			 M239.9,408.3l-3.4,2.7 M355.6,311.2l3.2-2.8 M242,410.8l-3.2,2.8 M353.4,308.8l3.1-3 M244.2,413.2l-3.1,3 M351,306.4l3-3.1
			 M246.6,415.6l-3,3.1 M348.6,304.2l2.8-3.2 M246.2,421l2.8-3.2 M346.1,302.1l2.7-3.4 M251.5,419.9l-2.7,3.4 M343.5,300.1l2.5-3.5
			 M254.1,421.9l-2.5,3.5 M340.8,298.2l2.4-3.6 M256.8,423.8l-2.4,3.6 M338,296.4l2.2-3.7 M259.6,425.6l-2.2,3.7 M335.1,294.8
			l2.1-3.8 M262.5,427.2l-2.1,3.8 M332.2,293.3l1.9-3.9 M265.4,428.7l-1.9,3.9 M329.2,291.9l1.7-3.9 M268.4,430.1l-1.7,3.9
			 M326.2,290.6l1.6-4 M269.9,435.4l1.6-4 M323.1,289.5l1.4-4.1 M274.5,432.5l-1.4,4.1 M319.9,288.5l1.2-4.1 M276.5,437.6l1.2-4.1
			 M316.8,287.6l1-4.2 M280.8,434.4l-1,4.2 M313.5,286.9l0.8-4.2 M284.1,435.1l-0.8,4.2 M310.3,286.3l0.7-4.2 M287.3,435.7l-0.7,4.2
			 M307,285.9l0.5-4.3 M290.1,440.4l0.5-4.3 M303.7,285.6l0.3-4.3 M293.9,436.4l-0.3,4.3 M300.4,285.5l0.1-4.3 M297.1,440.8l0.1-4.3
			"/>
	</g>
</g>
</svg>
