<?xml version="1.0" encoding="utf-8"?>
<!-- Generator: Adobe Illustrator 20.1.0, SVG Export Plug-In . SVG Version: 6.00 Build 0)  -->
<svg version="1.1" id="Layer_2" xmlns="http://www.w3.org/2000/svg" xmlns:xlink="http://www.w3.org/1999/xlink" x="0px" y="0px"
	 viewBox="0 0 595.3 841.9" style="enable-background:new 0 0 595.3 841.9;" xml:space="preserve">
<style type="text/css">
	.st0{fill:none;stroke:#B50000;stroke-miterlimit:10;}
</style>
<path class="st0" d="M256.2,447.1l-10.8-5.9l-2.2-9.5l3.7-4.1l2.3-2.1l-6.3,1.1l-0.9-0.5l14.3-5.2l0.6-4.8l12.4-5.1l5.3-0.3l0.5-0.7
	l4.3-0.3l-0.3-3.7l-1.2-0.5l1.3-0.9l-0.2-4.1l-0.9-1.5l2.1,0.1l1.2-1.1l0.7,1.1l2.2,0l0.8-1.2l4.7,0.1l0.1-0.8l3.7-0.2l0.6,1.2
	l8.6-0.1l1.1-5.1h13.9l0.1,4.8h1.2l0.1-0.9h2.7l0.3,1.3h2.7l-0.8,0.9l-0.2,5.2l1.5,0.1l-0.2,4.3v1.8l11-0.3l0.3-2l3.4,0.3l0.2,1.6
	l11.2-1.1l2.8-2.5l4.9,3.2l-2.4,10.3l0.9,7.3l-3.6,4l1.5,3.4c0,0-1.8,1.1-1.8,1.3s-3-0.4-3-0.4l-3.3,7.3l-13,5.5L256.2,447.1z"/>
</svg>
