<?xml version="1.0" encoding="utf-8"?>
<!-- Generator: Adobe Illustrator 20.1.0, SVG Export Plug-In . SVG Version: 6.00 Build 0)  -->
<svg version="1.1" id="Layer_1" xmlns="http://www.w3.org/2000/svg" xmlns:xlink="http://www.w3.org/1999/xlink" x="0px" y="0px"
	 viewBox="0 0 595.3 841.9" style="enable-background:new 0 0 595.3 841.9;" xml:space="preserve">
<style type="text/css">
	.st0{fill:none;stroke:#6b774b;stroke-width:1.5;stroke-miterlimit:10;}
</style>
<g id="Layer_2">
</g>
<g id="Layer_1_1_">
	<path class="st0" d="M293.6,311.3l0.6,5.5 M304,410.7l-0.6-5.5 M283.3,313.4l1.7,5.2 M314.3,408.6l-1.7-5.2 M273.8,317.7l2.7,4.8
		 M323.8,404.3l-2.7-4.8 M265.3,323.8l3.7,4.1 M332.3,398.2l-3.7-4.1 M258.3,331.6l4.4,3.2 M339.3,390.4l-4.4-3.2 M258.1,342.9
		l-5-2.2 M339.5,379.1l5,2.2 M249.9,350.6l5.4,1.1 M347.7,371.4l-5.4-1.1 M254.3,361h-5.5 M348.8,361h-5.5 M249.9,371.4l5.4-1.1
		 M347.7,350.6l-5.4,1.1 M253.1,381.3l5-2.2 M344.5,340.7l-5,2.2 M258.3,390.4l4.4-3.2 M334.8,334.8l4.4-3.2 M265.3,398.2l3.7-4.1
		 M332.3,323.8l-3.7,4.1 M273.8,404.3l2.7-4.8 M323.8,317.7l-2.7,4.8 M283.3,408.6l1.7-5.2 M314.3,313.4l-1.7,5.2 M293.6,410.7
		l0.6-5.5 M304,311.3l-0.6,5.5"/>
</g>
</svg>
